<svg baseProfile="full" xmlns="http://www.w3.org/2000/svg" viewBox="0 0 60 60"><g class="group_SVG" fill="none" stroke-miterlimit="10"><path d="M47.5 56.3L40.5 59 40.5 6.2 47.5 3.5z"/><path d="M33.5 56.2L40.3 59.3"/><path d="M41,6.1l-6.6-2.7l6.4-2.5c0,0,6.9,2.4,7,2.4"/><path d="M33.6 3.5L33.6 56.3"/><path d="M33.8 22.2L20.6 16.4 20.6 11 26 8.7 33.6 12.1"/><path d="M20.6 11L33.8 16.8"/><path d="M23.2 17.5L12.3 21.9 12.3 12.5 28.8 5.9 28.8 10.1"/><path d="M33.8 49.9L20.6 44 20.6 38.6 26 36.4 33.6 39.7"/><path d="M20.6 38.6L33.8 44.5"/><path d="M23.2 45.2L12.3 49.6 12.3 40.1 28.8 33.5 28.8 37.7"/><ellipse cx="37.2" cy="12.7" rx="1.6" ry="3"/><ellipse cx="37.2" cy="29.8" rx="1.6" ry="3"/><ellipse cx="37.2" cy="46.8" rx="1.6" ry="3"/></g></svg>