<svg xmlns="http://www.w3.org/2000/svg" width="247.135" height="76.1" viewBox="0 0 6457 1988" xmlns:xlink="http://www.w3.org/1999/xlink" shape-rendering="geometricPrecision" text-rendering="geometricPrecision" image-rendering="optimizeQuality" fill-rule="evenodd" clip-rule="evenodd"><defs><style>.fil4{fill:url(#id0)}.fil2{fill:url(#id1)}.fil3{fill:url(#id2)}.fil0{fill:url(#id3)}.fil1{fill:url(#id4)}</style><linearGradient id="id0" gradientUnits="userSpaceOnUse" x1="890.165" y1="631.767" x2="984.892" y2="1314.83"><stop offset="0" stop-color="#bdbfc1"/><stop offset=".349" stop-color="#d4d5d6"/><stop offset="1" stop-color="#ebecec"/></linearGradient><linearGradient id="id1" gradientUnits="userSpaceOnUse" x1="2036.18" y1="1421.67" x2="2130.93" y2="2104.79"><stop offset="0" stop-color="#de1f24"/><stop offset="1" stop-color="#b72221"/></linearGradient><linearGradient id="id2" gradientUnits="userSpaceOnUse" x1="1124.85" y1="1227.6" x2="1896.24" y2="1508.88"><stop offset="0" stop-color="#0060aa"/><stop offset="1" stop-color="#264796"/></linearGradient><linearGradient id="id3" gradientUnits="userSpaceOnUse" xlink:href="#id1" x1="1930.82" y1="-447.141" x2="2484.42" y2="1079.38"/><linearGradient id="id4" gradientUnits="userSpaceOnUse" x1="4025.06" y1="258.575" x2="4429.81" y2="1896.73"><stop offset="0" stop-color="#0060aa"/><stop offset=".522" stop-color="#264796"/><stop offset="1" stop-color="#0c54a0"/></linearGradient></defs><g id="Слой_x0020_1"><path class="fil0" d="M3553 0l164 0 0 618 -164 0 0 -83 -295 0 165 -152 130 0 0 -163 -458 412 0 -218 458 -414zm-752 149l-173 0 165 -149 371 0 -164 149 -34 0 0 469 -165 0 0 -469zm-534 -149l0 469 74 0c44,0 86,-34 86,-86 0,-51 -42,-86 -86,-86l-35 0 0 -148 51 0c100,0 234,77 234,234 0,157 -134,235 -233,235l-255 0 0 -469 164 -149zm-253 618l-164 0 0 -398 -457 411 0 -218 457 -413 164 0 0 618zm-858 -618l164 0 0 618 -164 0 0 -83 -295 0 165 -152 130 0 0 -163 -458 412 0 -218 458 -414z"/><path class="fil1" d="M6137 772l0 464 73 0c44,0 85,-34 85,-85 0,-51 -41,-85 -85,-85l-35 0 0 -147 51 0c99,0 231,76 231,232 0,155 -132,232 -231,232l-251 0 0 -464 162 -147zm-236 611l-162 0 0 -394 -452 407 0 -216 452 -408 162 0 0 611zm-1247 -477l163 -146 0 268 281 -256 140 0 0 611 -163 0 0 -368 -421 378 0 -487zm-590 -134l0 147c-73,12 -126,74 -126,158 0,84 75,159 161,159l0 -464 181 0c163,0 307,144 307,306 0,163 -127,305 -289,305l0 -147c73,-13 126,-75 126,-158 0,-84 -74,-159 -162,-159l0 464 -181 0c-162,0 -306,-145 -306,-306 0,-164 126,-305 289,-305zm-519 305c0,-88 -37,-166 -132,-166 -95,0 -131,75 -131,166 0,90 36,167 131,167 95,0 132,-77 132,-167zm-132 -313c167,0 295,114 295,313 0,201 -130,314 -295,314 -163,0 -293,-113 -293,-314 0,-199 128,-313 293,-313zm-350 240c0,156 -133,232 -232,232l-35 0 0 -147 35 0c44,0 85,-34 85,-85 0,-51 -41,-85 -85,-85l-73 0 0 464 -162 0 0 -464 162 -147 74 0c98,0 231,77 231,232zm-903 -232l370 0 0 611 -163 0 0 -464 -207 0 0 464 -163 0 0 -464 163 -147z"/><path class="fil2" d="M1907 1538L1146 1988 2260 1988 3021 1538z"/><path class="fil3" d="M1146 1538L1146 1945 1875 1514 1875 791 1146 1223z"/><path class="fil4" d="M1875 748L761 748 0 1198 1114 1198z"/></g></svg>