<svg id="Layer_1" xmlns="http://www.w3.org/2000/svg" viewBox="0 0 60 60"><path fill="none" stroke="#777" stroke-miterlimit="10" d="M53.7,25.1c0,4.4-3.6,8-8,8s-8-3.6-8-8s8-16,8-16S53.7,20.7,53.7,25.1 z"/><path fill="none" stroke="#777" stroke-miterlimit="10" d="M0.9 23.4L28.8 36.3"/><path fill="none" stroke="#777" stroke-miterlimit="10" d="M9.7,35.3l4.8,2.1c0.7,0.3,1.2,1.1,1.2,1.9l-0.3,11.6"/><path fill="none" stroke="#777" stroke-miterlimit="10" d="M36.7 52.5L36.7 47.6"/><path fill="none" stroke="#777" stroke-miterlimit="10" d="M2.2 26.5L29.9 39.3"/><path fill="none" stroke="#777" stroke-miterlimit="10" d="M13.9 37.2L36.6 47.4"/><path fill="none" stroke="#777" stroke-miterlimit="10" d="M53.2 22.6L59 25.1"/><path fill="none" stroke="#777" stroke-miterlimit="10" d="M53.7 25.3L59 27.6"/><path fill="none" stroke="#777" stroke-miterlimit="10" d="M21.7 8.7L40.7 17.1"/><path fill="none" stroke="#777" stroke-miterlimit="10" d="M22.1 11.4L39.8 19.2"/><path fill="none" stroke="#777" stroke-miterlimit="10" d="M58.7,25.1c1.5,7.3-0.7,21.4-11.3,23.7c-13.8,3.1-18-10.5-18.6-12.8"/><path fill="none" stroke="#777" stroke-miterlimit="10" d="M36.7,52c0.1,3.5-4.2,8-11.8,6.8c-9.4-1.5-9.7-7.5-9.6-9.5"/><path fill="none" stroke="#777" stroke-miterlimit="10" d="M10,35.4c-6.6-2.8-8.5-10.2-8.9-11.9"/><path fill="none" stroke="#777" stroke-miterlimit="10" d="M21.7,8.6c1.2,5.9,0,16.3-6,21.3"/></svg>