<svg id="Layer_1" xmlns="http://www.w3.org/2000/svg" viewBox="0 0 60 60"><g fill="none" stroke="#777" stroke-miterlimit="10"><path d="M52.1 43.5L11.3 59.2 11.3 18.4 52.1 2.7z"/><path d="M24.9 13.1L24.9 54.1"/><path d="M38.5 7.9L38.5 48.8"/><path d="M11.2 32L52.3 16.4"/><path d="M11.3 45.6L52.2 30"/><path d="M11.3 18.4L52.1 43.5"/><path d="M24.9 13.1L52.2 30"/><path d="M38.5 7.9L52.3 16.4"/><path d="M11.2 32L38.5 48.8"/><path d="M11.3 45.6L24.9 54.1"/><path d="M11.3 18.4L7.8 16.8"/><path d="M11.2 59.5L7.7 57.9"/><path d="M52.5 2.4L49 0.9"/><path d="M7.8 16.8L7.8 58.1"/><path d="M49.3 0.8L7.5 17"/></g></svg>