<svg id="Layer_1" xmlns="http://www.w3.org/2000/svg" viewBox="0 0 60 60"><g fill="none" stroke="#FFF" stroke-miterlimit="10"><path d="M47.2 47.1L47.2 4.6 35 9.3 32.4 7.9 25 10.7 27.7 12.1 17.3 16.2 15.2 15.1 10.1 17 10.1 59 15.2 57.1 17.3 58.7 27.7 54.6 27.7 52.1 32.3 50.4 35.6 51.6z"/><path d="M15.1 15.4L15.1 57.1"/><path d="M17.5 16.1L17.6 58.5"/><path d="M32.3 7.7L32.4 50.2"/><path d="M35.2 9.1L35.2 51.4"/><path d="M27.7 12L27.8 54.5"/><path d="M12.7,55.2c0.7,0,1.2-0.5,1.2-1.2l0-1.9c0-0.7-0.5-1.2-1.2-1.2l0,0 c-0.7,0-1.2,0.5-1.2,1.2l0,1.9C11.5,54.6,12,55.2,12.7,55.2L12.7,55.2z"/><path d="M12.7,40.5c0.7,0,1.2-0.5,1.2-1.2l0-1.9c0-0.7-0.5-1.2-1.2-1.2l0,0 c-0.7,0-1.2,0.5-1.2,1.2l0,1.9C11.5,40,12,40.5,12.7,40.5L12.7,40.5z"/><path d="M12.7,23.6c0.7,0,1.2-0.5,1.2-1.2l0-1.9c0-0.7-0.5-1.2-1.2-1.2l0,0 c-0.7,0-1.2,0.5-1.2,1.2l0,1.9C11.5,23.1,12,23.6,12.7,23.6L12.7,23.6z"/><path d="M47.2 4.8L44.3 3.2 49.9 1 49.9 43.7 47.1 44.7"/><path d="M43.6 3.1L43.6 6.1"/></g></svg>