<svg id="Layer_1" xmlns="http://www.w3.org/2000/svg" viewBox="0 0 60 60"><g fill="none" stroke="#0C0E0F" stroke-miterlimit="10"><path d="M51.4 42.3L7.9 59.4 7.9 47.5 2.9 49.2 2.9 36.4 7.9 34.5 7.9 24.3 6 23.5 6 18.2 49.6 1.1 49.6 6.5 51.4 7.3 51.4 17.6 56.5 15.8 56.5 28.8 51.2 30.9z"/><path d="M7.9 24.3L51.5 7.4"/><path d="M6 23.5L49.7 6.5"/><path d="M13.2,18c0.3,0.7-0.1,1.4-0.7,1.6l-1.8,0.7c-0.7,0.3-1.4-0.1-1.6-0.7 l0,0C8.8,19,9.1,18.3,9.8,18l1.8-0.7C12.3,17.1,13,17.4,13.2,18L13.2,18z"/><path d="M24.1,13.8c0.3,0.7-0.1,1.4-0.7,1.6l-1.8,0.7 c-0.7,0.3-1.4-0.1-1.6-0.7l0,0c-0.3-0.7,0.1-1.4,0.7-1.6l1.8-0.7C23.1,12.8,23.8,13.2,24.1,13.8L24.1,13.8z"/><path d="M34.8,9.6c0.3,0.7-0.1,1.4-0.7,1.6l-1.8,0.7 c-0.7,0.3-1.4-0.1-1.6-0.7l0,0c-0.3-0.7,0.1-1.4,0.7-1.6l1.8-0.7C33.8,8.6,34.6,8.9,34.8,9.6L34.8,9.6z"/><path d="M45.9,5.4C46.2,6,45.8,6.7,45.2,7l-1.8,0.7C42.7,7.9,42,7.6,41.7,7 l0,0c-0.3-0.7,0.1-1.4,0.7-1.6l1.8-0.7C44.9,4.4,45.7,4.7,45.9,5.4L45.9,5.4z"/><path d="M21.2 40.7L4.9 47 4.9 38.7 21.2 32.4z"/><path d="M54.8 27.8L24.1 39.5 24.1 31.2 54.8 19.5z"/><path d="M49.8 18.7L33.5 25 33.5 16.7 49.8 10.4z"/><path d="M31.2 25.9L10 33.9 10 25.6 31.2 17.5z"/><path d="M49.8 41L33.5 47.3 33.5 39 49.8 32.7z"/><path d="M31.9 47.8L10.2 56.3 10.2 48 31.9 39.5z"/></g></svg>