<svg id="Layer_1" xmlns="http://www.w3.org/2000/svg" viewBox="0 0 60 60"><g fill="#F00"><path d="M25.2,45c-0.5,0.3-0.8,0.5-1.1,0.5c-0.5,0-0.7-0.3-0.7-0.9v-8.9h-2.5v9c0,1.2,0.1,1.6,0.4,2 c0.3,0.4,0.9,0.6,1.5,0.6c0.7,0,1.3-0.3,2.4-1.2l0.2,1h2.3V35.7h-2.5V45z"/><path d="M35.4,35.5c-0.7,0-1.4,0.3-2.4,1.2v-5h-2.5v15.4H33v-1.1c1,0.9,1.6,1.2,2.4,1.2c0.6,0,1.2-0.3,1.5-0.7 c0.3-0.4,0.4-0.8,0.4-2v-6.4c0-1.2-0.1-1.6-0.4-2.1C36.6,35.8,35.9,35.5,35.4,35.5z M34.8,44.6c0,0.6-0.2,0.8-0.7,0.8 c-0.3,0-0.6-0.1-1.1-0.5v-7.2c0.5-0.3,0.8-0.5,1.1-0.5c0.5,0,0.7,0.3,0.7,0.9V44.6z"/><path d="M29.4,24.8c0.6,0,1-0.4,1-1.2V17c0-0.8-0.4-1.2-1-1.2c-0.7,0-1,0.4-1,1.2v6.5 C28.4,24.3,28.7,24.8,29.4,24.8z"/><path d="M0,0v60h60V0H0z M36.1,14h2.8v9.8c0,0.6,0.2,0.9,0.7,0.9c0.3,0,0.7-0.1,1.2-0.5V14h2.8v12.6H41l-0.2-1.1 c-1.1,0.9-1.8,1.3-2.6,1.3c-0.7,0-1.4-0.3-1.7-0.7c-0.3-0.4-0.4-0.9-0.4-2.2V14z M25.6,17.4c0-2.4,1.3-3.6,3.8-3.6 c2.5,0,3.8,1.2,3.8,3.6v5.8c0,2.4-1.3,3.6-3.8,3.6c-2.5,0-3.8-1.2-3.8-3.6V17.4z M19.1,9.7l0.4,1.7l0.3,1.2l0.3,1.2l0.3,1.2l0.2,1 h0.1l0.2-1l0.3-1.2l0.3-1.2l0.3-1.2l0.4-1.7h3.1l-3.3,9.9v7h-2.9v-7l-3.3-9.9H19.1z M51.4,42.8c0,4.1-3.3,7.4-7.4,7.4H16.1 c-4.1,0-7.4-3.3-7.4-7.4v-6.5c0-4.1,3.3-7.4,7.4-7.4h27.9c4.1,0,7.4,3.3,7.4,7.4V42.8z"/><path d="M12.7 33.8L15.2 33.8 15.2 47.1 17.9 47.1 17.9 33.8 20.5 33.8 20.5 31.8 12.7 31.8z"/><path d="M46.7,43.1h-2.5v0.7c0,0.8,0,1.1-0.2,1.3c-0.1,0.2-0.4,0.3-0.7,0.3c-0.7,0-0.9-0.3-0.9-1.2v-2.5h4.3v-3.4 c0-1.8-1.3-2.9-3.4-2.9c-2.3,0-3.5,1-3.5,3.2v5.3c0,2.1,1.2,3.2,3.4,3.2c2.3,0,3.5-1.1,3.5-3.1c0-0.1,0-0.3,0-0.6V43.1z M42.4,38.2 c0-0.5,0.3-0.8,0.9-0.8c0.6,0,0.9,0.3,0.9,0.8v1.9h-1.8V38.2z"/></g></svg>