<svg xmlns="http://www.w3.org/2000/svg" width="45" height="44" viewBox="0 0 45 44"><path d="M 42.77 7.99C 42.77 7.99 19.82 7.99 19.82 7.99 19.2 10.41 17.05 12.2 14.49 12.2 11.93 12.2 9.78 10.41 9.15 7.99 9.15 7.99 1.82 7.99 1.82 7.99 1.04 7.99 0.41 7.35 0.41 6.56 0.41 5.77 1.04 5.12 1.82 5.12 1.82 5.12 9.15 5.12 9.15 5.12 9.78 2.71 11.93 0.92 14.49 0.92 17.05 0.92 19.2 2.71 19.82 5.12 19.82 5.12 42.77 5.12 42.77 5.12 43.54 5.12 44.17 5.77 44.17 6.56 44.17 7.35 43.54 7.99 42.77 7.99ZM 14.49 3.79C 12.99 3.79 11.78 5.03 11.78 6.56 11.78 8.09 12.99 9.33 14.49 9.33 15.98 9.33 17.2 8.09 17.2 6.56 17.2 5.03 15.98 3.79 14.49 3.79ZM 1.82 20.79C 1.82 20.79 22.75 20.79 22.75 20.79 23.37 18.37 25.53 16.58 28.09 16.58 30.64 16.58 32.8 18.37 33.42 20.79 33.42 20.79 42.77 20.79 42.77 20.79 43.54 20.79 44.17 21.43 44.17 22.22 44.17 23.02 43.54 23.66 42.77 23.66 42.77 23.66 33.42 23.66 33.42 23.66 32.8 26.08 30.64 27.86 28.09 27.86 25.53 27.86 23.37 26.08 22.75 23.66 22.75 23.66 1.82 23.66 1.82 23.66 1.04 23.66 0.41 23.02 0.41 22.22 0.41 21.43 1.04 20.79 1.82 20.79ZM 28.09 25C 29.58 25 30.8 23.75 30.8 22.22 30.8 20.7 29.58 19.45 28.09 19.45 26.59 19.45 25.37 20.7 25.37 22.22 25.37 23.75 26.59 25 28.09 25ZM 1.82 36.46C 1.82 36.46 9.15 36.46 9.15 36.46 9.78 34.04 11.93 32.25 14.49 32.25 17.05 32.25 19.2 34.04 19.82 36.46 19.82 36.46 42.77 36.46 42.77 36.46 43.54 36.46 44.17 37.1 44.17 37.89 44.17 38.68 43.54 39.32 42.77 39.32 42.77 39.32 19.82 39.32 19.82 39.32 19.2 41.74 17.05 43.53 14.49 43.53 11.93 43.53 9.78 41.74 9.15 39.32 9.15 39.32 1.82 39.32 1.82 39.32 1.04 39.32 0.41 38.68 0.41 37.89 0.41 37.1 1.04 36.46 1.82 36.46ZM 14.49 40.66C 15.98 40.66 17.2 39.42 17.2 37.89 17.2 36.36 15.98 35.12 14.49 35.12 12.99 35.12 11.78 36.36 11.78 37.89 11.78 39.42 12.99 40.66 14.49 40.66Z" fill="#0071BB"/></svg>