<svg baseProfile="full" xmlns="http://www.w3.org/2000/svg" viewBox="0 0 60 60"><g class="group_SVG" fill="none" stroke-miterlimit="10"><path d="M30.1,21.5c0,2.9-2.4,5.3-5.3,5.3s-5.3-2.4-5.3-5.3S24.8,11,24.8,11 S30.1,18.6,30.1,21.5z"/><path d="M-9.9 24.6L19.8 38.3"/><path d="M-21.7 29.2L8 42.8"/><path d="M29.5 9.5L59.2 23.2"/><path d="M30.1 22.1L45.4 28.8"/><path d="M13.7 14.9L20.7 17.9"/><path d="M45.2,28.8C46.4,35,44.6,47,35.6,49c-11.7,2.6-15.3-8.9-15.8-10.9"/><path d="M19.5 38.2L7.8 42.9"/><path d="M59.2 23.2L45.2 28.8"/><path d="M8 42.8L5.9 60"/><path d="M15.1 40L12.6 60"/><path d="M22 43.3L20 60"/><path d="M28.8 48.7L27.3 60"/><path d="M35.1 49L34 60.5"/><path d="M43.2 42.8L40.5 61.9"/><path d="M51.8 26.1L47.4 61.9"/><path d="M59.3 23.1L54.6 62.9"/><path d="M0.2 0H60.1V60H0.2z"/></g></svg>