<svg baseProfile="full" xmlns="http://www.w3.org/2000/svg" viewBox="0 0 60 60"><g class="group_SVG" fill="none" stroke-miterlimit="10"><path d="M53 40.9L7.1 59 7.1 44 5.1 43 5.1 39.1 7.1 40 7.1 25.8 5.1 24.9 5.1 19.3 51.1 1.3 51.1 7 53 7.8 53 22.4 51.1 23.2 51.1 25.8 52.9 26.8z"/><path d="M7.1 44L52.9 26.8"/><path d="M5.1 43L51.1 25.6"/><path d="M7 40L53.1 22.4"/><path d="M7.1 25.8L53.1 7.9"/><path d="M5.1 24.9L51.2 6.9"/><path d="M12.7,19.1c0.3,0.7-0.1,1.5-0.8,1.7L10,21.6c-0.7,0.3-1.5-0.1-1.7-0.8 l0,0c-0.3-0.7,0.1-1.5,0.8-1.7l1.9-0.7C11.7,18.1,12.5,18.5,12.7,19.1L12.7,19.1z"/><path d="M24.2,14.7c0.3,0.7-0.1,1.5-0.8,1.7l-1.9,0.7 c-0.7,0.3-1.5-0.1-1.7-0.8l0,0c-0.3-0.7,0.1-1.5,0.8-1.7l1.9-0.7C23.1,13.7,23.9,14,24.2,14.7L24.2,14.7z"/><path d="M35.5,10.2c0.3,0.7-0.1,1.5-0.8,1.7l-1.9,0.7 c-0.7,0.3-1.5-0.1-1.7-0.8l0,0c-0.3-0.7,0.1-1.5,0.8-1.7l1.9-0.7C34.5,9.2,35.2,9.5,35.5,10.2L35.5,10.2z"/><path d="M47.2,5.6c0.3,0.7-0.1,1.5-0.8,1.7l-1.9,0.7C43.8,8.4,43,8,42.8,7.4 l0,0c-0.3-0.7,0.1-1.5,0.8-1.7l1.9-0.7C46.2,4.6,46.9,5,47.2,5.6L47.2,5.6z"/></g></svg>